<?xml version="1.0" encoding="UTF-8"?>
<svg id="_圖層_5" data-name="圖層 5" xmlns="http://www.w3.org/2000/svg" viewBox="0 0 1417.32 1417.32">
  <defs>
    <style>
      .cls-1 {
        fill: #444;
        stroke-width: 0px;
      }
    </style>
  </defs>
  <path class="cls-1" d="M618.01,315.04c50.36-20.61,107.12,27.94,175.09,49.41,85.42,26.98,179.06,38.72,192.95,127.88,22.5,144.62-19.33,226.57-19.33,226.57,0,0-108.86,80.28-328.87-31.36-219.96-111.63-198.61-164.71-198.61-164.71,0,0,32.8-148.02,178.77-207.78Z"/>
  <path class="cls-1" d="M419,533.74s-26.81,22.87-20.53,44.47c6.3,21.61,55.77,110.95,206.86,175.7,151.1,64.78,306.32,74.77,354.22,32.35,15.22-13.48,6.44-75.53,6.44-75.53l16.43-110.22c24.98,11.12,37.18,12.51,78.09,32.48,107.34,52.4,260.79,228.61,202.13,366.21-58.65,137.62-275.6,145.61-483.11,13.6-348.96-221.98-378.22-401.94-547.07-481.61-34.04-16.06,40.75,24.95,115.51,11.53,74.75-13.43,71.03-8.98,71.03-8.98Z"/>
  <path class="cls-1" d="M182.01,507.4c84.97,38.84,229.05,194.35,344.27,319.78,0,0-330.59-278.58-366-296.71-30.94-15.85-22.81-43.44,21.74-23.07Z"/>
</svg>
